<svg width="28" height="22" viewBox="0 0 28 22" fill="none" xmlns="http://www.w3.org/2000/svg">
<path d="M5.06206 0H22.9379C24.3309 0 25.5967 0.582224 26.5135 1.51976C27.4305 2.4573 28 3.75186 28 5.17639V16.8236C28 18.248 27.4305 19.5424 26.5135 20.4801C25.5967 21.4176 24.3309 22 22.9379 22H5.06206C3.66912 22 2.40316 21.4176 1.4862 20.4801C0.569364 19.5424 0 18.248 0 16.8236V5.17639C0 3.75212 0.569364 2.4573 1.4862 1.51976C2.40316 0.582224 3.66925 0 5.06206 0ZM2.45349 3.35278L13.9999 9.89427L25.5463 3.35291C25.4351 3.18766 25.3095 3.03339 25.1716 2.89218C24.5979 2.30564 23.8071 1.94144 22.9379 1.94144H5.06206C4.19288 1.94144 3.40187 2.30564 2.8283 2.89218C2.69007 3.03352 2.5645 3.18779 2.45362 3.35278H2.45349ZM26.1016 5.24994L14.4695 11.8398C14.1917 12.0019 13.8401 12.016 13.5403 11.8454L1.89843 5.24994V16.8237C1.89843 17.7126 2.25459 18.5212 2.8283 19.1078C3.40187 19.6945 4.19288 20.0588 5.06206 20.0588H22.9379C23.807 20.0588 24.5979 19.6945 25.1716 19.1078C25.7453 18.5212 26.1016 17.7124 26.1016 16.8237V5.24994Z" fill="black"/>
</svg>
