<svg width="32" height="32" viewBox="0 0 32 32" fill="none" xmlns="http://www.w3.org/2000/svg">
<path d="M9.47015 16.53L19.4702 26.53C19.6123 26.6625 19.8004 26.7346 19.9947 26.7311C20.189 26.7277 20.3744 26.649 20.5118 26.5116C20.6492 26.3742 20.7279 26.1888 20.7313 25.9945C20.7348 25.8002 20.6626 25.6121 20.5302 25.47L11.0614 16L20.5302 6.52997C20.6626 6.38779 20.7348 6.19975 20.7313 6.00545C20.7279 5.81114 20.6492 5.62576 20.5118 5.48835C20.3744 5.35093 20.189 5.27222 19.9947 5.26879C19.8004 5.26537 19.6123 5.33749 19.4702 5.46997L9.47015 15.47C9.3297 15.6106 9.25081 15.8012 9.25081 16C9.25081 16.1987 9.3297 16.3893 9.47015 16.53Z" fill="black"/>
</svg>
