<svg width="32" height="32" viewBox="0 0 32 32" fill="none" xmlns="http://www.w3.org/2000/svg">
<path d="M22.5298 16.53L12.5298 26.53C12.3877 26.6625 12.1996 26.7346 12.0053 26.7311C11.811 26.7277 11.6256 26.649 11.4882 26.5116C11.3508 26.3742 11.2721 26.1888 11.2687 25.9945C11.2652 25.8002 11.3374 25.6121 11.4698 25.47L20.9386 16L11.4698 6.52997C11.3374 6.38779 11.2652 6.19975 11.2687 6.00545C11.2721 5.81114 11.3508 5.62576 11.4882 5.48835C11.6256 5.35093 11.811 5.27222 12.0053 5.26879C12.1996 5.26537 12.3877 5.33749 12.5298 5.46997L22.5298 15.47C22.6703 15.6106 22.7492 15.8012 22.7492 16C22.7492 16.1987 22.6703 16.3893 22.5298 16.53Z" fill="black"/>
</svg>
